<svg width="44" height="16" viewBox="0 0 44 16" fill="none" xmlns="http://www.w3.org/2000/svg">
<path d="M2.844 12.7087V7.86674H10.224V6.13874H2.844V2.39474H10.494V0.64874H0.9V12.7087H2.844ZM16.0791 12.7087L17.4651 9.57674H23.8371L25.2231 12.7087H27.4191L22.0371 0.64874H19.3011L13.9191 12.7087H16.0791ZM19.8771 4.15874L20.5791 2.44874H20.7231L21.4251 4.15874L23.0631 7.83074H18.2391L19.8771 4.15874ZM41.0811 15.2467L38.9931 12.6727C41.7291 11.9887 43.4211 9.79274 43.4211 6.67874C43.4211 2.91674 40.9371 0.46874 37.1211 0.46874C33.3411 0.46874 30.8391 2.91674 30.8391 6.67874C30.8391 10.3507 33.2331 12.7807 36.8871 12.8887L38.6331 15.2467H41.0811ZM37.1211 11.0167C34.2591 11.0167 32.8911 9.68474 32.8911 6.67874C32.8911 3.67274 34.2591 2.32274 37.1211 2.32274C39.9831 2.32274 41.3691 3.67274 41.3691 6.67874C41.3691 9.68474 39.9831 11.0167 37.1211 11.0167Z" fill="#FF5555"/>
</svg>
